<svg xmlns="http://www.w3.org/2000/svg" width="30" height="30" viewBox="0 0 30 30">
    <defs>
        <style>
            .cls-2{fill:#1a80ad}.cls-3{fill:#1a5b80}
        </style>
    </defs>
    <g id="_001-paypal" transform="translate(0 -1)">
        <circle id="Ellipse_3536" cx="15" cy="15" r="15" fill="#f3f2f2" transform="translate(0 1)"/>
        <g id="Group_37460" transform="translate(15.056 13.357)">
            <path id="Path_13299" d="M312.719 197.133a6.594 6.594 0 0 0-1.483.239l-.115.941a4.04 4.04 0 0 1 1.267-.269c.49-.015.777.09.677.508-1.454 0-2.433.3-2.634 1.239-.288 1.613 1.483 1.568 2.188.866l-.086.388h1.3l.561-2.568c.225-1.09-.768-1.358-1.675-1.344zm.086 2.628a.649.649 0 0 1-.676.508c-.288.015-.547-.24-.36-.538.144-.254.547-.313.792-.313h.317c-.029.119-.044.224-.072.343z" class="cls-2" transform="translate(-305.975 -196.118)"/>
            <path id="Path_13300" d="M375.622 180.963l-1.072 4.927h1.316l1.085-4.927z" class="cls-2" transform="translate(-366.099 -180.963)"/>
            <path id="Path_13301" d="M243.376 181.2h-2.409l-1.068 4.912h1.4l.361-1.627h1a1.975 1.975 0 0 0 2.005-1.613 1.288 1.288 0 0 0-1.289-1.672zm-.043 1.672a.9.9 0 0 1-.823.672h-.649l.289-1.344h.692a.506.506 0 0 1 .491.674z" class="cls-2" transform="translate(-239.899 -181.187)"/>
        </g>
        <g id="Group_37461" transform="translate(2.48 13.335)">
            <path id="Path_13302" d="M112.329 197.133a6.169 6.169 0 0 0-1.451.239l-.113.941a3.753 3.753 0 0 1 1.237-.269c.484-.015.768.09.682.508-1.436 0-2.4.3-2.6 1.239-.285 1.613 1.464 1.568 2.147.866l-.085.388h1.294l.554-2.568c.226-1.09-.77-1.358-1.665-1.344zm.1 2.628a.659.659 0 0 1-.682.508.346.346 0 0 1-.341-.538c.142-.254.54-.313.768-.313h.327a2.774 2.774 0 0 0-.072.343z" class="cls-3" transform="translate(-105.625 -196.096)"/>
            <path id="Path_13303" d="M175.6 198.272h1.294l.209 2.288 1.266-2.288h1.331l-3.074 5.475h-1.447l.945-1.609z" class="cls-3" transform="translate(-166.668 -197.164)"/>
            <path id="Path_13304" d="M43.006 181.2H40.59l-1.07 4.912h1.417l.347-1.627H42.3a1.975 1.975 0 0 0 2-1.613 1.284 1.284 0 0 0-1.294-1.672zm-.043 1.672a.884.884 0 0 1-.81.672h-.665l.3-1.344h.694a.5.5 0 0 1 .481.674z" class="cls-3" transform="translate(-39.52 -181.165)"/>
            <path id="Path_13305" d="M414.1 181.27v-.581h-.217v-.078h.522v.078h-.218v.581z" class="cls-3" transform="translate(-390.384 -180.611)"/>
            <path id="Path_13306" d="M423.575 181.27v-.659h.131l.156.466c.015.043.025.076.031.1l.035-.105.159-.458h.117v.659h-.084v-.552l-.192.552h-.078l-.191-.561v.561z" class="cls-3" transform="translate(-399.471 -180.611)"/>
        </g>
    </g>
</svg>
