<svg xmlns="http://www.w3.org/2000/svg" width="30.001" height="30.001" viewBox="0 0 30.001 30.001">
    <defs>
        <style>
            .cls-6{fill:#fff}
        </style>
    </defs>
    <g id="_002-mastercard">
        <circle id="Ellipse_3537" cx="15" cy="15" r="15" fill="#3c80ad"/>
        <path id="Path_13307" fill="#931b1d" d="M58.138 121.955a6.909 6.909 0 1 0 4.683 12.017 6.934 6.934 0 0 0 .7-.74h-1.412a6.686 6.686 0 0 1-.514-.712h2.436a6.906 6.906 0 0 0 .4-.739h-3.238a6.724 6.724 0 0 1-.288-.726h3.816a6.894 6.894 0 0 0 .355-2.191 6.97 6.97 0 0 0-.159-1.48H60.7a7.035 7.035 0 0 1 .2-.725h3.818a6.928 6.928 0 0 0-.3-.74h-3.225a6.666 6.666 0 0 1 .4-.726h2.434a6.863 6.863 0 0 0-.535-.739h-1.361a6.318 6.318 0 0 1 .691-.7 6.856 6.856 0 0 0-4.639-1.8z" transform="translate(-48.041 -114.235)"/>
        <path id="Path_13308" fill="#f16622" d="M211.166 128.866a6.894 6.894 0 1 1-13.788 0 6.894 6.894 0 1 1 13.788 0s0-.002 0 0z" transform="translate(-184.884 -114.235)"/>
        <path id="Path_13309" fill="#f7981d" d="M211.166 130.078a6.894 6.894 0 1 1-13.788 0 6.894 6.894 0 1 1 13.788 0s0-.002 0 0z" transform="translate(-184.884 -115.37)"/>
        <path id="Path_13310" fill="#cb2026" d="M58.138 123.193a6.909 6.909 0 1 0 4.683 12.017 6.829 6.829 0 0 0 .7-.74h-1.412a6.63 6.63 0 0 1-.514-.711h2.436a6.967 6.967 0 0 0 .4-.74h-3.238a6.782 6.782 0 0 1-.288-.725h3.816a6.9 6.9 0 0 0 .355-2.191 6.967 6.967 0 0 0-.159-1.48H60.7a7.035 7.035 0 0 1 .2-.725h3.818a6.932 6.932 0 0 0-.3-.74h-3.225a6.727 6.727 0 0 1 .4-.726h2.434a6.991 6.991 0 0 0-.535-.74h-1.361a6.4 6.4 0 0 1 .691-.7 6.857 6.857 0 0 0-4.639-1.8z" transform="translate(-48.041 -115.395)"/>
        <g id="Group_37462" transform="translate(3.901 12.923)">
            <path id="Path_13311" d="M182.563 212.21l.092-.625c-.05 0-.124.021-.189.021-.255 0-.284-.136-.267-.237l.206-1.276h.388l.094-.692h-.366l.075-.43h-.734c-.016.016-.433 2.419-.433 2.711a.546.546 0 0 0 .585.623 1.928 1.928 0 0 0 .549-.095z" class="cls-6" transform="translate(-173.844 -208.667)"/>
            <path id="Path_13312" d="M203.035 216.172a1.153 1.153 0 0 0 1.268 1.287 1.857 1.857 0 0 0 .775-.121l.13-.71a2.27 2.27 0 0 1-.78.182c-.788 0-.65-.589-.65-.589h1.492a5.332 5.332 0 0 0 .1-.671.986.986 0 0 0-1.047-1.075c-.742 0-1.288.797-1.288 1.697zm1.287-1.039c.414 0 .338.467.338.5h-.815c0-.043.077-.5.477-.5z" class="cls-6" transform="translate(-194.083 -213.821)"/>
            <path id="Path_13313" d="M267.745 207.692l.131-.8a1.757 1.757 0 0 1-.607.182.728.728 0 0 1-.729-.827c0-.869.448-1.347.947-1.347a1.3 1.3 0 0 1 .674.211l.12-.779a2.625 2.625 0 0 0-.826-.181c-.848 0-1.672.736-1.672 2.121 0 .917.445 1.523 1.321 1.523a3.375 3.375 0 0 0 .641-.103z" class="cls-6" transform="translate(-252.858 -204.149)"/>
            <path id="Path_13314" d="M115.4 214.654a2.536 2.536 0 0 0-.889.162l-.106.634a2.32 2.32 0 0 1 .8-.129c.273 0 .473.031.473.253a.474.474 0 0 1-.024.185s-.215-.018-.315-.018c-.635 0-1.3.271-1.3 1.09a.7.7 0 0 0 .708.793.953.953 0 0 0 .753-.338l-.024.281h.646l.288-2.026a.868.868 0 0 0-1.01-.887zm.157 1.649c.014.124-.078.7-.52.7a.268.268 0 0 1-.287-.278c0-.2.109-.443.647-.443a.48.48 0 0 1 .162.018z" class="cls-6" transform="translate(-110.72 -213.989)"/>
            <path id="Path_13315" d="M150.176 217.678c.165 0 1.11.042 1.11-.935 0-.914-.875-.734-.875-1.1 0-.182.143-.24.4-.24.1 0 .5.033.5.033l.093-.65a3.435 3.435 0 0 0-.677-.057c-.544 0-1.094.216-1.094.96 0 .843.919.758.919 1.113 0 .237-.257.256-.455.256a2.385 2.385 0 0 1-.652-.112l-.1.643a2.3 2.3 0 0 0 .831.089z" class="cls-6" transform="translate(-143.798 -214.058)"/>
            <path id="Path_13316" d="M361.766 205.422l-.158.984a.97.97 0 0 0-.709-.382c-.673 0-1.233.812-1.233 1.746 0 .6.3 1.193.91 1.193a.916.916 0 0 0 .683-.307l-.032.262h.714l.561-3.5zm-.341 1.92c0 .388-.192.907-.59.907-.264 0-.388-.222-.388-.571 0-.57.255-.947.577-.947.266 0 .401.182.401.611z" class="cls-6" transform="translate(-340.799 -205.34)"/>
            <path id="Path_13317" d="M62.326 208.91l.447-2.641.065 2.641h.506l.943-2.641-.418 2.641h.751l.579-3.5h-1.161l-.724 2.148-.038-2.148h-1.07l-.587 3.5z" class="cls-6" transform="translate(-61.619 -205.328)"/>
            <path id="Path_13318" d="M240.3 218.07c.214-1.217.253-2.206.763-2.026a2.849 2.849 0 0 1 .272-.853.764.764 0 0 0-.142-.01c-.328 0-.572.45-.572.45l.065-.413H240l-.457 2.851z" class="cls-6" transform="translate(-228.284 -214.484)"/>
            <path id="Path_13319" d="M303.365 214.654a2.533 2.533 0 0 0-.889.162l-.106.634a2.314 2.314 0 0 1 .8-.129c.273 0 .473.031.473.253a.47.47 0 0 1-.025.185s-.215-.018-.316-.018c-.635 0-1.3.271-1.3 1.09a.7.7 0 0 0 .708.793.951.951 0 0 0 .753-.338l-.024.281h.647l.288-2.026a.868.868 0 0 0-1.009-.887zm.158 1.649c.014.124-.077.7-.52.7a.268.268 0 0 1-.287-.278c0-.2.109-.443.646-.443a.482.482 0 0 1 .161.018z" class="cls-6" transform="translate(-286.785 -213.989)"/>
            <path id="Path_13320" d="M337.648 218.07c.214-1.217.254-2.206.764-2.026a2.832 2.832 0 0 1 .273-.853.775.775 0 0 0-.142-.01c-.329 0-.572.45-.572.45l.065-.413h-.684l-.458 2.851h.754z" class="cls-6" transform="translate(-319.469 -214.484)"/>
        </g>
    </g>
</svg>
