<svg xmlns="http://www.w3.org/2000/svg" width="30.001" height="30.001" viewBox="0 0 30.001 30.001">
    <defs>
        <style>
            .cls-2{fill:#2d78bc}.cls-3{fill:#fff}
        </style>
    </defs>
    <g id="_003-american_express">
        <circle id="Ellipse_3538" cx="15" cy="15" r="15" fill="#27ade4"/>
        <path id="Path_13321" d="M34.353 161.84l-.468-1.156-.465 1.156m11.243-.46a.624.624 0 0 1-.338.06h-.831v-.64h.842a.694.694 0 0 1 .324.052.267.267 0 0 1 .143.257.3.3 0 0 1-.14.275m5.925.46l-.473-1.156-.47 1.156zm-11.046 1.251h-.7v-2.271l-.991 2.271h-.6l-.994-2.273v2.273h-1.395l-.263-.647h-1.423l-.266.647h-.743l1.224-2.9h1.016l1.163 2.746v-2.746h1.116l.895 1.967.822-1.967h1.139v2.9zm2.794 0h-2.284v-2.9h2.284v.6h-1.6v.523H42.3v.595h-1.564v.578h1.6v.6zm3.221-2.119a.816.816 0 0 1-.482.773.793.793 0 0 1 .338.245.84.84 0 0 1 .113.531v.57h-.69v-.366a.881.881 0 0 0-.108-.565c-.1-.1-.252-.124-.5-.124h-.734v1.055h-.684v-2.9h1.573a1.589 1.589 0 0 1 .828.139.679.679 0 0 1 .346.643m1.094 2.119h-.7v-2.9h.7zm8.094 0h-.969l-1.3-2.177v2.177h-1.389l-.266-.647H49.4l-.258.647h-.8a1.425 1.425 0 0 1-.991-.321 1.471 1.471 0 0 1-.365-1.107 1.554 1.554 0 0 1 .369-1.134 1.375 1.375 0 0 1 1.038-.338h.662v.621h-.648a.653.653 0 0 0-.526.172.968.968 0 0 0-.2.657 1.014 1.014 0 0 0 .188.681.652.652 0 0 0 .476.15h.307l.964-2.28h1.025l1.158 2.743v-2.743h1.041l1.2 2.019v-2.019h.7v2.9zm-22.585.57h1.168l.263-.644h.59l.263.644h2.3v-.492l.205.494h1.193l.205-.5v.5h5.713v-1.058h.111c.077 0 .1.01.1.14v.918h2.955v-.246a2.315 2.315 0 0 0 1.1.246h1.243l.266-.644h.59l.26.644h2.4v-.612l.363.612h1.919v-4.045h-1.9v.478l-.266-.478h-1.962v.478l-.239-.485h-2.638a2.34 2.34 0 0 0-1.141.236v-.236H45.4v.236a1.115 1.115 0 0 0-.772-.236h-6.634l-.445 1.045-.457-1.045H35v.478l-.23-.478h-1.782l-.828 1.923-.95 2.122z" class="cls-2" transform="translate(-29.234 -149.512)"/>
        <path id="Path_13322" d="M34.353 165.582l-.468-1.156-.465 1.156m11.243-.46a.624.624 0 0 1-.338.06h-.831v-.644h.842a.694.694 0 0 1 .324.052.267.267 0 0 1 .143.257.3.3 0 0 1-.14.275m5.925.46l-.473-1.156-.47 1.156zm-11.046 1.251h-.7v-2.271l-.991 2.271h-.6l-.994-2.273v2.273h-1.395l-.263-.647h-1.423l-.266.647h-.743l1.224-2.9h1.016l1.163 2.746v-2.746h1.116l.895 1.967.822-1.967h1.139v2.9zm2.794 0h-2.284v-2.9h2.284v.6h-1.6v.523H42.3v.595h-1.564v.578h1.6v.6zm3.221-2.119a.816.816 0 0 1-.482.773.792.792 0 0 1 .338.245.84.84 0 0 1 .113.531v.57h-.69v-.366a.881.881 0 0 0-.108-.565c-.1-.1-.252-.124-.5-.124h-.734v1.055h-.684v-2.9h1.573a1.589 1.589 0 0 1 .828.139.679.679 0 0 1 .346.643m1.094 2.119h-.7v-2.9h.7zm8.094 0h-.969l-1.3-2.177v2.177h-1.389l-.266-.647H49.4l-.258.647h-.8a1.425 1.425 0 0 1-.991-.321 1.471 1.471 0 0 1-.365-1.107 1.554 1.554 0 0 1 .369-1.134 1.375 1.375 0 0 1 1.038-.338h.662v.621h-.648a.653.653 0 0 0-.526.172.968.968 0 0 0-.2.657 1.014 1.014 0 0 0 .188.681.652.652 0 0 0 .476.15h.307l.964-2.28h1.025l1.158 2.743v-2.743h1.041l1.2 2.019v-2.019h.7v2.9zm-22.585.57h1.168l.263-.644h.59l.263.644h2.3v-.492l.205.494h1.193l.205-.5v.5h5.713v-1.058h.111c.077 0 .1.01.1.14v.918h2.955v-.246a2.315 2.315 0 0 0 1.1.246h1.243l.266-.644h.59l.26.644h2.4v-.612l.363.612h1.919v-4.045h-1.9v.478l-.266-.478h-1.962v.478l-.239-.481h-2.638a2.34 2.34 0 0 0-1.141.236v-.236H45.4v.236a1.115 1.115 0 0 0-.772-.236h-6.634l-.445 1.045-.457-1.045H35v.478l-.23-.478h-1.782l-.828 1.923-.95 2.122z" class="cls-3" transform="translate(-29.234 -153.017)"/>
        <path id="Path_13323" d="M141.715 239.252V237.4H140a1.415 1.415 0 0 0-.856.236v-.236h-1.873a1.283 1.283 0 0 0-.817.236v-.236h-3.345v.236a1.763 1.763 0 0 0-.922-.236h-2.206v.236a1.546 1.546 0 0 0-.964-.236h-2.469l-.565.619-.529-.619h-3.688v4.044h3.618l.582-.629.548.629h2.231v-.952h.219a2.3 2.3 0 0 0 .953-.142v1.091h1.84v-1.054h.089c.113 0 .124.005.124.119v.935h5.588a1.583 1.583 0 0 0 .932-.259v.259h1.772a2.349 2.349 0 0 0 1-.186 1.463 1.463 0 0 0 .447-2zM129 239.9h-.854v.972h-1.33l-.842-.96-.875.96h-2.71v-2.9h2.752l.842.95.87-.95h2.186c.543 0 1.152.152 1.152.955s-.591.973-1.191.973zm4.117-.131a.852.852 0 0 1 .113.529v.575h-.686v-.363a.867.867 0 0 0-.111-.568c-.1-.1-.252-.129-.5-.129h-.733v1.059h-.687v-2.9h1.579a1.673 1.673 0 0 1 .823.137.68.68 0 0 1 .352.644.812.812 0 0 1-.485.771.745.745 0 0 1 .332.243zm2.812-1.2h-1.6v.527h1.563v.591h-1.563v.577h1.6v.6h-2.283v-2.9h2.283v.6zm1.742 2.3h-1.332v-.622h1.327a.4.4 0 0 0 .279-.072.259.259 0 0 0 .081-.189.251.251 0 0 0-.084-.192.355.355 0 0 0-.244-.064c-.64-.022-1.441.02-1.441-.9a.856.856 0 0 1 .978-.863h1.372v.617h-1.257a.461.461 0 0 0-.274.052.245.245 0 0 0 .047.425.788.788 0 0 0 .266.032l.369.011a1.093 1.093 0 0 1 .781.233.811.811 0 0 1 .2.614c.004.629-.38.92-1.07.92zm3.521-.28a1.156 1.156 0 0 1-.85.28h-1.321v-.622h1.316a.383.383 0 0 0 .277-.072.255.255 0 0 0 .081-.189.24.24 0 0 0-.084-.192.343.343 0 0 0-.241-.064c-.642-.022-1.444.02-1.444-.9a.858.858 0 0 1 .982-.863h1.337v.617h-1.221a.472.472 0 0 0-.277.052.226.226 0 0 0-.1.208.219.219 0 0 0 .15.216.767.767 0 0 0 .263.033l.371.01a1.07 1.07 0 0 1 .776.233.388.388 0 0 1 .064.072l-.023-.03a.952.952 0 0 1-.055 1.207zm-16.406-2.019l.748.845-.782.85h-1.682v-.577h1.5v-.588h-1.5v-.527zm1.629.855l1.05-1.143v2.324zm3.042-.5c0 .251-.164.383-.427.383h-.884v-.738h.892c.245.002.417.104.417.357zm3.053-.042a.313.313 0 0 1-.142.278.647.647 0 0 1-.338.06h-.83v-.651h.842a.666.666 0 0 1 .327.052.275.275 0 0 1 .139.263z" class="cls-2" transform="translate(-114.061 -222.369)"/>
        <path id="Path_13324" d="M141.715 242.994v-1.856H140a1.415 1.415 0 0 0-.856.236v-.236h-1.873a1.283 1.283 0 0 0-.817.236v-.236h-3.345v.236a1.762 1.762 0 0 0-.922-.236h-2.206v.236a1.545 1.545 0 0 0-.964-.236h-2.469l-.565.619-.529-.619h-3.688v4.044h3.618l.582-.629.548.629h2.231v-.952h.219a2.294 2.294 0 0 0 .953-.142v1.091h1.84v-1.054h.089c.113 0 .124.005.124.119v.935h5.588a1.583 1.583 0 0 0 .932-.259v.259h1.772a2.349 2.349 0 0 0 1-.186 1.463 1.463 0 0 0 .447-2zm-12.715.647h-.854v.972h-1.33l-.842-.96-.875.96h-2.71v-2.9h2.752l.842.95.87-.95h2.186c.543 0 1.152.152 1.152.955s-.591.973-1.191.973zm4.117-.131a.852.852 0 0 1 .113.529v.575h-.686v-.363a.866.866 0 0 0-.111-.567c-.1-.1-.252-.129-.5-.129h-.733v1.059h-.687v-2.9h1.579a1.673 1.673 0 0 1 .823.137.68.68 0 0 1 .352.644.812.812 0 0 1-.485.771.746.746 0 0 1 .332.243zm2.812-1.2h-1.6v.527h1.563v.591h-1.563v.577h1.6v.6h-2.283v-2.9h2.283v.6zm1.742 2.3h-1.332v-.622h1.327a.4.4 0 0 0 .279-.072.259.259 0 0 0 .081-.189.25.25 0 0 0-.084-.192.355.355 0 0 0-.244-.064c-.64-.022-1.441.02-1.441-.9a.856.856 0 0 1 .978-.863h1.372v.617h-1.257a.461.461 0 0 0-.274.052.245.245 0 0 0 .047.425.787.787 0 0 0 .266.032l.369.011a1.094 1.094 0 0 1 .781.233.811.811 0 0 1 .2.614c.004.63-.38.921-1.07.921zm3.521-.28a1.156 1.156 0 0 1-.85.28h-1.321v-.622h1.316a.383.383 0 0 0 .277-.072.255.255 0 0 0 .081-.189.24.24 0 0 0-.084-.192.343.343 0 0 0-.241-.064c-.642-.022-1.444.02-1.444-.9a.858.858 0 0 1 .982-.863h1.337v.617h-1.221a.472.472 0 0 0-.277.052.226.226 0 0 0-.1.208.219.219 0 0 0 .15.216.767.767 0 0 0 .263.033l.371.01a1.07 1.07 0 0 1 .776.233.39.39 0 0 1 .064.072l-.023-.03a.952.952 0 0 1-.055 1.207zm-16.406-2.019l.748.845-.782.85h-1.682v-.577h1.5v-.591h-1.5v-.527zm1.629.855l1.05-1.143v2.324zm3.042-.5c0 .251-.164.383-.427.383h-.884v-.738h.892c.245.003.417.105.417.358zm3.053-.042a.313.313 0 0 1-.142.278.647.647 0 0 1-.338.06h-.83v-.651h.842a.666.666 0 0 1 .327.052.275.275 0 0 1 .139.264z" class="cls-3" transform="translate(-114.061 -225.874)"/>
    </g>
</svg>
