<svg xmlns="http://www.w3.org/2000/svg" id="_004-visa" width="30" height="30.001" viewBox="0 0 30 30.001">
    <defs>
        <style>
            .cls-2{fill:#293688}.cls-3{fill:#f7981d}
        </style>
    </defs>
    <circle id="Ellipse_3539" cx="15" cy="15" r="15" fill="#f3f2f2" transform="translate(0 .001)"/>
    <g id="Group_37463" transform="translate(4.983 10.992)">
        <path id="Path_13325" d="M175.483 182.151l1.148-6.778h1.858l-1.148 6.778z" class="cls-2" transform="translate(-169.359 -175.264)"/>
        <path id="Path_13326" d="M226.818 173.931a4.826 4.826 0 0 0-1.666-.284c-1.837 0-3.13.919-3.141 2.237-.01.974.923 1.517 1.629 1.841.723.332.967.544.963.841 0 .454-.578.662-1.112.662a3.922 3.922 0 0 1-1.749-.356l-.239-.108-.261 1.517a5.91 5.91 0 0 0 2.07.362c1.953 0 3.222-.909 3.236-2.316.007-.771-.488-1.358-1.56-1.841-.65-.313-1.048-.522-1.043-.84 0-.282.337-.583 1.064-.583a3.446 3.446 0 0 1 1.391.26l.166.078.253-1.469z" class="cls-2" transform="translate(-212.221 -173.647)"/>
        <path id="Path_13327" d="M304.406 175.373a.924.924 0 0 0-.963.577l-2.754 6.2h1.967l.383-1.039h2.351l.218 1.039h1.749l-1.53-6.778h-1.421zm-.845 4.383c.154-.39.74-1.894.74-1.894-.011.018.153-.392.247-.647l.126.584.43 1.957h-1.543z" class="cls-2" transform="translate(-286.64 -175.264)"/>
        <path id="Path_13328" d="M81.474 180.019l-.164-.929a5.3 5.3 0 0 0-2.571-2.842l1.642 5.9h1.968l2.951-6.778h-1.967z" class="cls-2" transform="translate(-78.739 -175.264)"/>
    </g>
    <g id="Group_37464" transform="translate(1.689 11.101)">
        <path id="Path_13329" d="M46.823 175.373v.109a6.345 6.345 0 0 1 4.592 3.607l-.674-3.138a.8.8 0 0 0-.857-.578z" class="cls-3" transform="translate(-45.549 -175.373)"/>
        <path id="Path_13330" d="M40.006 354.318a14.994 14.994 0 0 0 13.31-8.085H26.7a15 15 0 0 0 13.306 8.085z" class="cls-3" transform="translate(-26.696 -335.418)"/>
    </g>
    <path id="Path_13331" d="M41.74 0a15 15 0 0 0-13.192 7.856h26.385A15 15 0 0 0 41.74 0z" class="cls-2" transform="translate(-26.742)"/>
</svg>
