<svg xmlns="http://www.w3.org/2000/svg" id="_007-cirrus" width="30.001" height="30.001" viewBox="0 0 30.001 30.001">
    <defs>
        <style>
            .cls-2{fill:#0683c2}.cls-4{fill:#fff}
        </style>
    </defs>
    <circle id="Ellipse_3540" cx="15" cy="15" r="15" fill="#f3f2f2"/>
    <path id="Path_13332" d="M212.415 144.294l.372-.009.364-.029.361-.045.355-.064.348-.079.343-.1.334-.115.327-.127.32-.146.31-.158.3-.175.293-.189.284-.2.271-.216.262-.226.249-.239.239-.249.227-.262.215-.273.2-.282.187-.293.175-.3.158-.311.146-.319.127-.327.115-.336.1-.341.079-.35.065-.354.044-.361.029-.366.009-.372-.009-.368-.029-.365-.044-.359-.065-.351-.079-.349-.1-.339-.115-.334-.127-.325-.146-.318-.158-.311-.175-.3-.187-.293-.2-.282-.215-.271-.227-.261-.239-.249-.249-.239-.262-.226-.271-.214-.284-.2-.293-.187-.3-.174-.31-.16-.32-.144-.327-.13-.334-.113-.343-.1-.348-.079-.355-.064-.361-.045-.364-.029-.372-.009-.371.009-.366.029-.36.045-.355.064-.348.079-.343.1-.334.113-.327.13-.32.144-.309.16-.3.174-.293.187-.282.2-.271.214-.262.226-.249.239-.237.249-.226.261-.214.271-.2.282-.186.293-.172.3-.16.311-.144.318-.128.325-.113.334-.1.339-.081.349-.063.351-.045.359-.029.365-.009.368.009.372.029.366.045.361.063.354.081.35.1.341.113.336.128.327.144.319.16.311.172.3.186.293.2.282.214.273.226.262.237.249.249.239.262.226.271.216.282.2.293.189.3.175.309.158.32.146.327.127.334.115.343.1.348.079.355.064.36.045.366.029z" class="cls-2" transform="translate(-192.227 -121.676)"/>
    <path id="Path_13333" fill="#305499" d="M61.373 144.294l.372-.009.366-.029.359-.045.356-.064.348-.079.343-.1.334-.115.327-.127.319-.146.309-.158.3-.175.293-.189.282-.2.271-.216.262-.226.25-.239.237-.249.226-.262.214-.273.2-.282.187-.293.172-.3.16-.311.144-.319.127-.327.113-.336.1-.341.081-.35.063-.354.045-.361.029-.366.009-.372-.009-.368-.029-.365-.045-.359-.063-.351-.081-.349-.1-.339-.113-.334-.127-.325-.144-.318-.16-.311-.172-.3-.187-.293-.2-.282-.214-.271-.226-.261-.237-.249-.25-.239-.262-.226-.271-.214-.282-.2-.293-.187-.3-.174-.309-.16-.319-.144-.327-.13-.334-.113-.343-.1-.348-.079-.356-.064-.359-.045-.366-.029-.372-.009-.372.009-.365.029-.361.045-.356.064-.348.079-.343.1-.334.113-.329.13-.318.144-.312.16-.3.174-.293.187-.282.2-.273.214-.261.226-.251.239-.239.249-.226.261-.214.271-.2.282-.189.293-.172.3-.16.311-.143.318-.13.325-.113.334-.1.339-.079.349-.064.351-.045.359-.029.365-.009.368.009.372.029.366.045.361.064.354.079.35.1.341.113.336.13.327.143.319.16.311.172.3.189.293.2.282.214.273.226.262.239.249.251.239.261.226.273.216.282.2.293.189.3.175.312.158.318.146.329.127.334.115.343.1.348.079.356.064.361.045.365.029z" transform="translate(-50.733 -121.676)"/>
    <g id="Group_37465" transform="translate(12.99 10.561)">
        <path id="Path_13334" d="M229.471 167.243h3.651v-.4h-3.3z" class="cls-2" transform="translate(-227.936 -166.841)"/>
        <path id="Path_13335" d="M220.423 180.717h4.224v-.4h-3.967z" class="cls-2" transform="translate(-219.46 -179.462)"/>
        <path id="Path_13336" d="M213.692 194.364h4.65v-.4h-4.455z" class="cls-2" transform="translate(-213.156 -192.245)"/>
        <path id="Path_13337" d="M209.273 207.841h4.927v-.4h-4.807z" class="cls-2" transform="translate(-209.016 -204.869)"/>
        <path id="Path_13338" d="M206.377 221.317h5.113v-.4h-5.039z" class="cls-2" transform="translate(-206.304 -217.491)"/>
        <path id="Path_13339" d="M205.217 234.763h5.183v-.4h-5.161z" class="cls-2" transform="translate(-205.217 -230.087)"/>
        <path id="Path_13340" d="M205.254 248.211h5.146v-.4h-5.186z" class="cls-2" transform="translate(-205.217 -242.684)"/>
        <path id="Path_13341" d="M206.648 261.689h5.027v-.4h-5.1z" class="cls-2" transform="translate(-206.489 -255.308)"/>
        <path id="Path_13342" d="M209.758 275.165h4.784v-.4h-4.906z" class="cls-2" transform="translate(-209.356 -267.933)"/>
        <path id="Path_13343" d="M214.46 288.615h4.418v-.4h-4.614z" class="cls-2" transform="translate(-213.691 -280.53)"/>
        <path id="Path_13344" d="M221.451 302.106h3.908v-.415h-4.176z" class="cls-2" transform="translate(-220.172 -293.155)"/>
        <path id="Path_13345" d="M231.153 315.767h3.213v-.4H230.8z" class="cls-2" transform="translate(-229.18 -305.965)"/>
    </g>
    <g id="Group_37466" transform="translate(5.502 12.387)">
        <path id="Path_13346" d="M405 271.382v-.009l.009-.034.011-.032.016-.029.018-.029.02-.027.024-.023.025-.022.027-.02.029-.016.031-.014.032-.011.034-.007.036-.005h.07l.032.005.032.007.031.011.031.014.029.016.025.02.025.022.022.023.022.027.016.029.016.029.011.032.009.034v.009h-.063l-.016-.05-.027-.046-.036-.041-.042-.034-.047-.026-.052-.016-.054-.006h-.058l-.029.007-.027.009-.025.011-.023.015-.023.016-.019.018-.02.02-.018.022-.014.023-.013.023-.009.027-.007.023z" class="cls-4" transform="translate(-384.869 -266.328)"/>
        <path id="Path_13347" d="M408.379 274.1v-.1h.176l.025.005.021.007.016.011.013.014.009.016.005.02v.022h-.05v-.025l-.007-.009-.009-.005-.011-.005h-.127v.048z" class="cls-4" transform="translate(-388.03 -269.044)"/>
        <path id="Path_13348" d="M404.918 275.582V275.528h.063V275.579z" class="cls-4" transform="translate(-384.788 -270.473)"/>
        <path id="Path_13349" d="M408.379 275.582v-.054h.061v.049H408.558l.014-.005.011-.007.007-.011.005-.014h.05v.016l-.005.016-.007.013-.007.009z" class="cls-4" transform="translate(-388.03 -270.473)"/>
        <path id="Path_13350" d="M414.826 275.582l-.005-.05h.063V275.586z" class="cls-4" transform="translate(-394.062 -270.473)"/>
        <path id="Path_13351" d="M404.918 276.381v.045l.006.036.009.036.011.032.016.031.018.031.02.025.024.025.025.022.027.02.029.018.031.014.032.011.034.007.035.005h.07l.032-.005.032-.007.031-.011.031-.014.029-.018.025-.02.025-.022.022-.025.022-.025.016-.031.016-.031.011-.032.009-.036.005-.036v-.045h-.061v.007l-.005.061-.018.056-.027.05-.036.043-.042.034-.047.025-.052.016h-.112l-.029-.007-.027-.009-.025-.011-.023-.014-.023-.016-.019-.018-.02-.022-.018-.022-.014-.023-.013-.027-.009-.027-.009-.029v-.069z" class="cls-4" transform="translate(-384.788 -271.272)"/>
        <path id="Path_13352" d="M408.379 276.381v.153h.061v-.122h.061l.074.122h.061l-.073-.122.018-.005.016-.007.014-.007.013-.009z" class="cls-4" transform="translate(-388.03 -271.272)"/>
        <path id="Path_13353" d="M404.9 271.449h-.037l-.074-.013-.035-.011-.034-.015-.06-.041-.026-.023-.047-.054-.036-.065-.013-.036-.009-.038-.006-.038v-.078l.006-.037.021-.071.036-.063.021-.029.052-.049.028-.021.063-.033.035-.012.074-.014h.075l.069.013.033.011.064.032.054.044.047.054.035.061.022.073.006.036v.08l-.006.039-.02.072-.034.065-.047.055-.053.044-.031.02-.033.016-.033.012-.069.013zm0-.693h-.033l-.066.012-.03.01-.055.029-.048.038-.022.022-.034.051-.016.028-.017.06-.005.032v.068l.014.067.01.03.032.057.04.045.049.038.027.017.028.013.029.009.066.011h.065l.061-.012.028-.01.028-.013.026-.017.047-.039.041-.048.029-.056.017-.062.005-.034v-.068l-.014-.063-.01-.031-.03-.053-.04-.046-.047-.038-.054-.027-.028-.01-.061-.012z" class="cls-4" transform="translate(-384.414 -265.956)"/>
        <path id="Path_13354" d="M408.3 273.953h-.121l-.074-.122h-.021v.122h-.112v-.353h.2l.029.006.024.008.027.018.013.014.012.021.008.025v.047l-.007.022-.025.036-.038.022zm-.092-.051l-.067-.112.082-.032.012-.018V273.7l-.011-.025-.006-.006-.014-.009-.038-.009h-.145v.253h.01v-.122h.1z" class="cls-4" transform="translate(-387.651 -268.666)"/>
        <path id="Path_13355" d="M409.056 274.512h-.111v-.148l.167.006.027.017.012.014v.049l-.005.014-.017.022-.016.01-.034.01zm-.06-.051h.072l.027-.01.006-.011v-.013l-.01-.006H409v.046z" class="cls-4" transform="translate(-388.56 -269.383)"/>
        <path id="Path_13356" d="M405.8 272.29l-.061-.005-.061-.018-.027-.012-.051-.033-.044-.043-.019-.023-.016-.026-.014-.03-.019-.059-.007-.067.006-.062.019-.059.029-.052.02-.025.042-.04.05-.033.058-.022.03-.008.062-.006.058.006.057.017.052.027.045.036.039.044.03.05.02.059.007.063-.005.066-.019.062-.029.054-.038.047-.045.038-.051.028-.056.018zm0-.571l-.052.005-.051.015-.023.01-.042.028-.036.035-.016.02-.024.042-.016.05v.051l.005.056.017.051.025.045.053.056.043.028.047.017.027.007h.05l.052-.005.046-.015.042-.023.037-.031.032-.04.024-.046.016-.052v-.055l-.005-.053-.017-.048-.025-.042-.033-.037-.039-.031-.043-.023-.047-.014z" class="cls-4" transform="translate(-385.314 -266.858)"/>
        <path id="Path_13357" d="M351.891 213.062h-.058l-.053-.005-.051-.006-.05-.007-.049-.007-.05-.009-.052-.007-.054-.009-.057-.007-.063-.005h-.319l-.1.006-.113.007-.08.013-.077.016-.068.023-.063.027-.056.031-.049.034-.041.039-.032.041-.026.043-.016.047-.007.048v.05l.011.05.022.052.029.054.041.052.038.04.043.034.045.032.05.029.054.027.055.025.06.022.061.023.063.022.065.02.065.021.065.022.065.023.066.025.063.027.065.029.061.032.059.036.057.038.055.045.05.047.049.054.045.059.039.065.034.07.031.079.024.085.017.093.013.1.005.11v.119l-.009.129-.012.1-.018.09-.021.084-.027.081-.03.077-.034.072-.038.069-.043.064-.045.059-.049.056-.05.052-.054.05-.055.045-.06.041-.059.04-.063.034-.064.032-.065.03-.076.009-.068.023-.067.022-.07.02-.068.016-.07.014-.068.013-.068.011-.069.007-.068.007-.067.006H349.306l-.05-.005h-.094l-.045-.006-.042-.005-.041-.005-.039-.007-.038-.007-.037-.007-.036-.007-.036-.007-.034-.009-.034-.009-.034-.009-.034-.011-.034-.009-.032-.011-.034-.013-.034-.011-.036-.012.184-.891.016.005.02.007.022.007.023.007.027.009.029.007.032.009.032.01.036.009.038.009.041.009.041.009.043.009.045.009.047.009.049.009.049.007.05.009.052.007.054.007.054.006.055.005.056.006H350.162l.059-.007.052-.009.049-.015.043-.018.037-.02.032-.023.031-.025.026-.027.023-.029.018-.031.016-.031.014-.032.012-.031.009-.032.009-.031.008-.031.007-.063v-.055l-.013-.05-.023-.047-.031-.043-.039-.039-.047-.036-.052-.032-.058-.032-.064-.029-.068-.029-.072-.029-.073-.029-.077-.031-.077-.031-.079-.032-.079-.034-.079-.038-.077-.041-.073-.043-.072-.05-.068-.052-.064-.059-.059-.067-.052-.072-.047-.077-.041-.086-.031-.1-.024-.1-.014-.112v-.122l.007-.131.009-.081.011-.079.014-.075.014-.074.02-.07.019-.068.024-.065.027-.063.029-.061.031-.057.036-.055.037-.052.041-.05.045-.046.047-.045.052-.043.054-.039.06-.038.063-.034.066-.032.07-.031.074-.027.077-.023.082-.022.088-.02.092-.016.1-.014.1-.013.1-.009.11-.005H351.676l.036.005h.129l.027.005H351.943l.022.005h.139z" class="cls-4" transform="translate(-331.98 -211.027)"/>
        <path id="Path_13358" d="M349.756 216.1l-.658-.009-.5-.043-.292-.063-.228-.074v-.022l.189-.919.262.078.3.063.368.046.171.01h.233l.118-.007.109-.016.045-.014.041-.017.035-.019.059-.045.045-.052.032-.057.026-.061.024-.09.006-.06v-.052l-.012-.045-.021-.042-.029-.039-.037-.036-.044-.034-.05-.031-.057-.031-.131-.057-.458-.185-.08-.038-.078-.042-.074-.044L349 214l-.069-.053-.066-.061-.061-.068-.054-.074-.048-.079-.042-.088-.032-.1-.024-.1-.015-.114v-.125l.007-.133.02-.162.029-.15.04-.14.024-.067.056-.126.031-.058.075-.111.042-.052.094-.094.054-.044.055-.04.061-.039.132-.067.071-.031.075-.027.079-.024.083-.022.089-.02.189-.031.1-.013.1-.009.226-.009h.27l.642.031.458.07-.006.028-.211.923-.185-.016-.313-.047-.206-.013h-.17l-.214.013-.078.012-.076.016-.065.022-.061.026-.053.029-.046.033-.038.037-.03.039-.024.04-.014.042-.006.044v.047l.01.045.02.047.027.052.039.048.036.038.084.063.1.054.055.025.181.066.259.086.131.053.065.029.063.033.118.075.058.046.052.048.05.056.046.061.041.067.035.072.032.081.024.087.018.1.013.1.005.112v.121l-.009.131-.013.1-.018.091-.022.086-.028.083-.031.079-.034.073-.039.07-.044.066-.045.061-.05.057-.051.053-.055.051-.057.046-.121.082-.13.068-.065.031-.068.028-.136.045-.071.02-.14.031-.138.024-.2.02zm-.312-.053h.44l.2-.02.135-.023.137-.03.134-.041.068-.023.065-.027.127-.062.062-.034.117-.08.054-.044.052-.049.049-.051.048-.055.044-.058.042-.063.037-.067.033-.07.03-.076.027-.08.021-.082.018-.089.012-.094.009-.128v-.117l-.005-.108-.013-.1-.017-.092-.023-.082-.03-.077-.033-.068-.038-.063-.044-.057-.047-.053-.049-.045-.054-.044-.114-.072-.06-.032-.126-.055-.194-.069-.313-.108-.112-.053-.052-.029-.091-.069-.04-.042-.043-.054-.031-.058-.023-.054-.012-.055v-.055l.007-.052.017-.051.027-.048.034-.044.044-.042.052-.037.058-.032.065-.028.07-.024.08-.017.082-.013.218-.013h.176l.21.013.452.059.2-.854-.329-.053-.342-.029-.515-.011-.234.005-.109.005-.1.009-.195.027-.091.016-.168.041-.076.023-.073.026-.134.062-.062.033-.058.037-.052.038-.051.042-.09.089-.04.049-.072.106-.029.055-.055.122-.023.063-.039.137-.028.147-.02.158-.007.13v.12l.014.109.023.1.03.093.04.083.045.075.051.07.058.065.063.057.067.051.071.049.072.042.076.041.156.071.512.209.06.033.053.033.049.038.042.041.034.046.025.051.014.055v.061l-.007.067-.026.1-.028.067-.036.064-.025.032-.027.029-.067.052-.04.022-.045.019-.051.015-.116.017-.18.009h-.177l-.34-.027-.347-.058-.294-.071-.082-.027-.173.84.284.086.266.046.239.023z" class="cls-4" transform="translate(-331.548 -210.65)"/>
        <path id="Path_13359" d="M91.394 197.479l-.026-.014-.027-.012-.027-.014-.027-.014-.027-.013-.029-.014-.031-.013-.031-.014-.03-.013-.032-.012-.032-.013-.032-.013-.034-.013-.034-.011-.036-.01-.036-.013-.038-.009-.037-.011-.04-.009-.039-.009-.041-.007-.041-.009-.041-.005-.045-.007-.043-.005h-.045l-.047-.005h-.398l-.053.006-.052.005-.055.007-.054.009-.055.011-.056.014-.055.018-.055.019-.058.023-.055.027-.055.029-.054.034-.055.039-.054.041-.052.047-.052.052-.052.058-.05.061-.049.069-.047.073-.047.079-.045.084-.043.091-.039.1-.04.1-.036.111-.036.121-.031.125-.031.135-.027.138-.018.138-.007.136v.133l.014.131.023.126.036.122.046.115.06.11.07.1.083.094.095.084.108.074.12.063.135.052.149.038.023.006h.029l.029.005h.032l.036.005H90.112l.05-.006h.052l.05-.007.052-.009.05-.011.052-.013.05-.013.05-.016.05-.018.048-.02.047-.023.047-.025.045-.027.043-.029.042-.032.039-.034.038-.038-.183 1.072-.011.009-.013.009-.012.011-.015.011-.016.013-.016.013-.016.012-.02.013-.022.014-.023.012-.025.014-.027.014-.031.014-.034.013-.036.012-.04.013-.041.013-.047.013-.05.011-.054.011-.057.009-.061.007-.067.007-.07.007h-.53l-.107-.005-.115-.007-.091-.007-.092-.011-.092-.018-.091-.022-.094-.027-.092-.031-.09-.036-.091-.043-.088-.045-.088-.052-.085-.056-.082-.063-.081-.067-.077-.072-.075-.076-.07-.082-.068-.087-.063-.093-.057-.1-.054-.1-.05-.108-.043-.113-.038-.118-.032-.122-.025-.13-.02-.135-.013-.138-.005-.145v-.149l.009-.156.018-.16.027-.167.031-.167.036-.161.038-.157.041-.149.043-.146.049-.138.052-.133.053-.127.059-.122.061-.117.067-.111.068-.106.074-.1.075-.1.081-.09.085-.084.088-.081.091-.074.1-.068.1-.064.1-.058.108-.053.112-.049.115-.045.12-.037.124-.034.13-.029.131-.023.136-.018.142-.015.146-.009.149-.005h.192l.063.005.061.005.061.007.059.007.059.007.057.009.058.011.054.009.054.011.054.013.05.011.048.013.049.011.045.013.045.013.043.011.039.013.039.011.036.011.034.011.032.011.029.009.027.009.025.009.023.007.02.005.016.005h.027z" class="cls-4" transform="translate(-87.303 -196.065)"/>
        <path id="Path_13360" d="M89.3 201.14h-.189l-.211-.009-.207-.014-.093-.011-.094-.018-.093-.022-.095-.027-.093-.031-.091-.037-.093-.044-.089-.045-.089-.053-.086-.056-.084-.064-.082-.067-.078-.073-.076-.076-.071-.084-.069-.087-.064-.095-.058-.1-.055-.1-.051-.109-.044-.115-.038-.12-.033-.123-.025-.131-.02-.136-.013-.14-.005-.147v-.151l.009-.157.018-.161.027-.168.035-.169.074-.319.084-.3.049-.139.053-.134.054-.128.06-.123.061-.118.067-.112.068-.107.075-.1.076-.1.081-.091.086-.085.089-.082.093-.075.1-.069.1-.065.106-.059.109-.054.113-.049.116-.045.122-.038.125-.035.131-.029.132-.024.138-.018.143-.015.147-.009.215-.005.253.016.239.031.271.054.6.173v.023l-.2 1.156-.192-.1-.22-.089-.257-.071-.209-.033-.186-.015h-.3l-.212.027-.055.011-.054.014-.109.037-.057.023-.109.055-.052.033-.107.079-.051.045-.051.051-.051.056-.05.06-.047.067-.092.151-.044.083-.042.09-.078.2-.071.23-.061.259-.027.138-.018.137-.007.135v.131l.014.128.023.124.036.12.045.112.058.107.068.1.081.091.093.082.105.072.118.061.132.051.169.042.281.03h.185l.1-.005.2-.027.151-.036.1-.033.047-.019.091-.047.086-.055.078-.064.093-.093-.2 1.161-.149.112-.109.058-.154.052-.1.024-.112.02-.2.022zm.561-5.409H89.8l-.148.005-.145.009-.141.014-.136.018-.13.023-.129.028-.123.034-.119.037-.113.044-.111.048-.107.053-.1.057-.1.063-.094.068-.09.073-.086.08-.084.084-.08.089-.074.094-.073.1-.067.1-.066.111-.06.116-.059.121-.053.126-.052.133-.048.137-.084.293-.074.316-.03.166-.027.166-.018.159-.009.155v.148l.005.144.013.137.02.133.025.128.032.121.038.117.043.112.049.106.054.1.057.1.062.092.067.085.069.082.074.074.077.071.08.065.082.062.083.055.087.051.086.044.091.043.088.036.09.03.092.027.09.022.091.018.09.01.312.02h.371l.157-.007.253-.03.148-.034.149-.049.1-.054.129-.1.168-.987-.065.053-.09.058-.1.049-.1.039-.051.017-.155.037-.1.017-.154.015h-.192l-.207-.014-.153-.024-.15-.038-.138-.053-.123-.064-.11-.075-.1-.086-.085-.1-.072-.1-.061-.112-.047-.117-.037-.124-.024-.128-.014-.133v-.135l.007-.138.018-.14.027-.14.061-.262.072-.234.08-.2.044-.093.045-.085.094-.154.049-.069.052-.063.053-.058.053-.053.054-.048.111-.083.055-.035.113-.057.116-.044.056-.018.058-.015.112-.02.163-.018h.3l.233.02.251.047.183.054.225.091.133.067.185-1.063-.712-.194-.347-.05-.123-.011z" class="cls-4" transform="translate(-86.914 -195.679)"/>
        <path id="Path_13361" d="M152.284 218.946l.695-4.188h-1.316l-.693 4.188z" class="cls-4" transform="translate(-146.914 -213.55)"/>
        <path id="Path_13362" d="M151.86 218.6h-1.366v-.03l.7-4.209h1.368v.03zm-1.306-.051h1.263l.686-4.137h-1.265z" class="cls-4" transform="translate(-146.469 -213.175)"/>
        <path id="Path_13363" d="M184.809 217.618h1.34l.488-2.545.029-.07.034-.064.036-.059.039-.052.044-.05.045-.043.047-.039.048-.034.049-.032.049-.027.05-.023.05-.021.049-.018.047-.014.047-.013.045-.011h.131l.031.006.032.005.03.007.031.007.029.007.025.005.023.007.018.006h.023l.354-1.218h-.297l-.056.005-.053.005-.052.007-.052.009-.052.009-.049.013-.048.013-.047.014-.047.014-.045.018-.045.018-.042.02-.043.02-.039.023-.042.023-.037.026-.038.025-.038.029-.036.029-.034.03-.034.031-.034.032-.032.036-.031.034-.031.038-.031.038-.029.039.049-.56h-1.157z" class="cls-4" transform="translate(-178.612 -212.222)"/>
        <path id="Path_13364" d="M185.726 217.269h-1.392l.005-.03.748-4.258h1.206l-.044.5.1-.117.1-.1.075-.059.077-.051.082-.047.178-.077.193-.055.159-.026.11-.011H187.657l-.372 1.281-.033-.017-.233-.054-.059-.007h-.063l-.135.037-.1.039-.049.023-.047.026-.094.065-.045.038-.044.042-.042.049-.038.051-.035.057-.033.063-.028.067zm-1.331-.051h1.289l.484-2.524.031-.075.035-.067.037-.061.041-.054.045-.052.046-.045.048-.04.1-.068.05-.028.1-.046.1-.033.115-.028h.055l.128.018.161.041.338-1.162h-.263l-.159.018-.1.018-.187.053-.171.074-.153.095-.072.056-.1.092-.122.143-.082.112.054-.624h-1.108z" class="cls-4" transform="translate(-178.167 -211.847)"/>
        <path id="Path_13365" d="M283.883 218.775h-1.291l.1-.619-.031.034-.031.034-.029.034-.029.032-.031.032-.029.031-.031.029-.029.029-.031.029-.032.027-.032.027-.034.023-.034.025-.036.023-.037.022-.04.02-.041.02-.045.02-.045.016-.049.016-.05.016-.054.013-.057.013-.06.013-.063.009-.067.009-.07.007-.072.007H281.104l-.063-.007-.063-.011-.059-.014-.06-.018-.059-.022-.055-.027-.055-.031-.054-.032-.052-.038-.05-.041-.047-.043-.047-.049-.045-.05-.041-.054-.04-.057-.036-.061-.036-.063-.031-.067-.031-.068-.025-.072-.024-.076-.022-.077-.016-.079-.014-.083-.011-.084-.007-.086v-.275l.009-.095.011-.1.39-2.433h1.291l-.342 2.153-.014.1-.005.1v.09l.011.083.016.074.022.068.029.061.034.054.038.049.043.039.045.034.05.029.052.022.054.014.056.009h.126l.074-.009.075-.013.075-.02.077-.025.076-.031.075-.039.072-.045.07-.054.065-.061.061-.07.054-.077.049-.088.04-.1.032-.106.024-.115.329-2.118h1.291z" class="cls-4" transform="translate(-267.834 -213.369)"/>
        <path id="Path_13366" d="M283.515 218.418h-1.343l.088-.564-.121.134-.157.142-.107.074-.08.043-.087.04-.146.049-.173.038-.131.018-.143.014-.248.011h-.154l-.065-.007-.064-.011-.061-.015-.061-.018-.061-.022-.058-.028-.112-.064-.054-.039-.052-.042-.048-.044-.093-.1-.042-.055-.04-.058-.073-.126-.062-.137-.05-.15-.022-.078-.031-.164-.011-.086-.007-.088v-.28l.02-.194.393-2.456h1.341l-.36 2.286v.181l.011.08.015.072.021.066.027.058.032.051.036.046.04.036.043.033.047.027.049.02.051.013.053.008h.121l.145-.021.073-.019.076-.025.074-.03.073-.038.071-.044.068-.053.063-.059.059-.068.052-.075.047-.086.038-.095.031-.1.023-.112.332-2.138h1.342zm-3.411-4.211l-.387 2.412-.019.19v.271l.007.085.011.083.03.16.044.15.025.071.06.132.071.122.079.109.09.1.046.042.049.04.051.037.107.061.054.026.057.021.058.017.058.014.061.01.061.007h.15l.245-.011.269-.032.169-.037.141-.048.123-.058.071-.044.13-.1.147-.147.175-.2-.105.675h1.239l.626-4.148h-1.24l-.325 2.1-.024.116-.033.108-.041.1-.05.09-.055.08-.063.072-.067.063-.072.056-.074.046-.077.04-.078.032-.079.026-.077.02-.153.022h-.13l-.058-.009-.057-.015-.055-.023-.053-.03-.048-.036-.045-.041-.041-.051-.035-.056-.03-.064-.023-.071-.016-.076-.011-.085v-.093l.005-.1.015-.106.337-2.124H280.1z" class="cls-4" transform="translate(-267.443 -212.986)"/>
        <path id="Path_13367" d="M230.436 217.618h1.313l.5-2.545.031-.07.032-.064.038-.059.039-.052.043-.05.045-.043.047-.039.047-.034.05-.032.049-.027.05-.023.05-.021.049-.018.047-.014.047-.013.045-.011h.132l.031.006.032.005.031.007.031.007.029.007.025.005.024.007.018.006h.023l.354-1.218h-.303l-.056.005-.054.005-.054.007-.052.009-.05.009-.049.013-.049.013-.049.014-.045.014-.047.018-.043.018-.043.02-.041.02-.041.023-.039.023-.039.026-.038.025-.036.029-.036.029-.036.03-.034.031-.032.032-.032.036-.03.034-.031.038-.03.038-.029.039.048-.56h-1.144z" class="cls-4" transform="translate(-221.351 -212.222)"/>
        <path id="Path_13368" d="M231.321 217.273h-1.364l.005-.03.745-4.258h1.193l-.043.5.1-.116.069-.065.109-.089.119-.076.085-.044.087-.038.094-.033.147-.04.159-.026.11-.011H233.271l-.372 1.279-.034-.015-.233-.054-.059-.007h-.063l-.135.037-.1.039-.049.023-.047.026-.049.031-.045.033-.045.038-.044.042-.041.049-.038.051-.037.058-.031.062-.03.069zm-1.3-.051h1.262l.5-2.524.032-.075.033-.066.039-.062.041-.054.044-.052.047-.045.048-.04.048-.035.052-.033.05-.028.1-.046.1-.034.115-.028h.054l.128.018.162.041.324-1.159h-.263l-.161.018-.1.018-.187.053-.088.035-.083.039-.155.1-.139.116-.093.1-.088.113-.054.074.054-.623h-1.093z" class="cls-4" transform="translate(-220.902 -211.851)"/>
        <path id="Rectangle_11443" d="M0 0H1.169V0.051H0z" class="cls-4" transform="translate(6.941 1.133)"/>
        <path id="Rectangle_11444" d="M0 0H1.157V0.051H0z" class="cls-4" transform="translate(9.827 1.133)"/>
    </g>
</svg>
