<svg xmlns="http://www.w3.org/2000/svg" width="30.001" height="30.001" viewBox="0 0 30.001 30.001">
    <defs>
        <style>
            .cls-2{fill:#d2d2d2}
        </style>
    </defs>
    <g id="_016-direct_debit">
        <circle id="Ellipse_3541" cx="15" cy="15" r="15" fill="#686969"/>
        <g id="Group_37467" transform="translate(1.965 10.988)">
            <path id="Path_13371" d="M215.43 199.061h1.287s1.274-.026 1.261 1.132c-.013.862-1.235.991-1.235.991h-1.313v-2.123zm3.85 4.157c.036.168.158.354.564.373a1.558 1.558 0 0 0 .849-.193v.4a5.474 5.474 0 0 1-.875.142c-.3 0-1.171-.064-1.171-.875 0-.656.721-.862 1.132-.862.721.025 1.068.283 1.055 1.016 0 .011-1.186 0-1.555 0zm0-.322h.988s0-.373-.476-.373a.451.451 0 0 0-.511.373zm3.123-.4a1.01 1.01 0 0 1 .785-.279.844.844 0 0 1 .914.85 1.022 1.022 0 0 1-1.7.595v.216h-.631v-2.316h.631v.935zm.541 1.073a.552.552 0 0 0 .541-.489c0-.155-.09-.476-.566-.476a.5.5 0 0 0-.515.416v.168a.493.493 0 0 0 .541.382zm5.444-.064l.013.36a2.96 2.96 0 0 1-.489.064c-.193 0-.7-.115-.7-.6v-.746h-.528v-.334h.528v-.4h.644v.4h.528v.334h-.528v.643s0 .322.257.322.27-.038.27-.038zm-1.956-4.092h.746v1.787h.631v-1.788h.759v-.373h-2.136v.373zm-.257.09l.077-.374a2.4 2.4 0 0 0-.888-.141c-.554 0-1.442.309-1.442 1.145s.939 1.107 1.519 1.107a2.1 2.1 0 0 0 .772-.09l-.064-.412a2.643 2.643 0 0 1-.695.077.73.73 0 1 1 .038-1.429 2.066 2.066 0 0 1 .682.116zm-5.688-.45s1.056-.051 1.056.566c0 .528-.605.566-.605.566a.4.4 0 0 1 .245.142c.064.1.489.875.489.875h-.643a2.133 2.133 0 0 1-.154-.219c-.039-.09-.154-.283-.154-.283a.442.442 0 0 0-.4-.322l-.232-.008v.832h-.617v-2.149h1.016zm-.4.965h.334s.464-.026.489-.309-.45-.309-.45-.309h-.373v.618zm2.587.335h1.026v-.4h-1.029v-.489h1.12v-.412h-1.75v2.148h1.763v-.386h-1.132v-.463zm2.51 1.647h.631v-.438h-.631V202zm0 1.879h.631v-1.639h-.631v1.634zm-6.872-2.677h.618v-2.149h-.618v2.147zm-2.883.541h1.287s1.274-.026 1.261 1.132c-.013.862-1.235.991-1.235.991h-1.312v-2.123zm.63 1.724h.412s.849-.052.849-.707-.9-.721-.9-.721h-.361v1.429zm0-2.677h.412s.849-.064.849-.708c0-.669-.9-.721-.9-.721h-.361v1.428z" class="cls-2" transform="translate(-203.758 -197.376)"/>
            <path id="Path_13372" d="M36.943 176.547v4.306s-2.5-.45-2.5-2.162c0-1.365 1.848-1.967 2.5-2.144zm0-.08c-1.5-.109-4.9.595-4.9 2.134 0 1 1.8 2.471 4.735 2.509a3.455 3.455 0 0 0 3.4-3.706 3.365 3.365 0 0 0-3.011-3.623v-.181c2.867.182 5.122 1.906 5.122 4 0 2.213-2.522 4.015-5.624 4.015s-5.611-1.8-5.611-4.015 2.51-4.015 5.611-4.015c.095 0 .189 0 .283.005v2.879z" class="cls-2" transform="translate(-31.049 -173.582)"/>
        </g>
    </g>
</svg>
