<svg xmlns="http://www.w3.org/2000/svg" width="30.001" height="30.001" viewBox="0 0 30.001 30.001">
    <defs>
        <style>
            .cls-2{fill:#009ddd}.cls-4{fill:#fff}
        </style>
    </defs>
    <g id="_022-maestro">
        <circle id="Ellipse_3542" cx="15.001" cy="15.001" r="15.001" fill="#003473"/>
        <g id="Group_37468" transform="translate(3.806 8.257)">
            <path id="Path_13373" d="M70.932 141.7a6.464 6.464 0 1 0-4.331 1.671 6.435 6.435 0 0 0 4.331-1.671z" class="cls-2" transform="translate(-60.13 -130.442)"/>
            <path id="Path_13374" d="M230.767 166.434a6.462 6.462 0 0 0 0-9.586v9.586z" class="cls-2" transform="translate(-219.965 -155.176)"/>
        </g>
        <path id="Path_13375" fill="#ed1c2e" d="M205.887 130.446a6.464 6.464 0 0 0-4.344 1.672 8.31 8.31 0 0 0-.646.684h1.3a8.3 8.3 0 0 1 .494.683H200.4q-.208.342-.38.684h3.039c.1.228.2.456.279.684h-3.583a6.184 6.184 0 0 0-.19.7h3.963a6.884 6.884 0 0 1 .14 1.367 6.506 6.506 0 0 1-.33 2.052h-3.583q.113.341.265.684h3.039a7.023 7.023 0 0 1-.367.684H200.4a6.873 6.873 0 0 0 .494.684h1.3a6.652 6.652 0 0 1-.658.684 6.465 6.465 0 1 0 4.344-11.258z" transform="translate(-186.935 -122.189)"/>
        <g id="Group_37469" transform="translate(5.959 13.057)">
            <path id="Path_13376" d="M366.194 251.673a.211.211 0 0 1 .216-.2.2.2 0 0 1 .2.2.211.211 0 0 1-.2.216.222.222 0 0 1-.216-.216zm.216.165a.157.157 0 0 0 .152-.165.146.146 0 0 0-.152-.152.157.157 0 0 0-.164.152.167.167 0 0 0 .164.165zm-.025-.076h-.05v-.177h.076c.025 0 .038 0 .051.013s.025.025.025.038-.013.051-.038.051l.038.076h-.051l-.025-.063h-.025v.064zm0-.1h.05v-.039h-.05v.039z" class="cls-4" transform="translate(-348.973 -248.609)"/>
            <path id="Path_13377" d="M97.648 209.546h-.81l.481-2.52-1.1 2.52h-.735l-.126-2.507-.481 2.507h-.737l.621-3.28h1.266l.063 2.026.888-2.026h1.3z" class="cls-4" transform="translate(-94.14 -206.266)"/>
            <path id="Path_13378" d="M273.587 209.512a2.058 2.058 0 0 1-.583.088c-.4 0-.633-.2-.633-.582a1.793 1.793 0 0 1 .025-.241l.05-.266.039-.2.367-2.038h.8l-.113.607h.417l-.114.646h-.418l-.2 1.114a.612.612 0 0 0-.025.114c0 .139.089.2.279.2a.921.921 0 0 0 .215-.025l-.1.583z" class="cls-4" transform="translate(-261.089 -206.27)"/>
            <path id="Path_13379" d="M297.668 215.518a.216.216 0 0 0-.088-.026c-.038-.013-.064-.013-.064-.025h-.088a.832.832 0 0 0-.7.43l.076-.405h-.735l-.494 2.672h.81c.291-1.634.405-1.925.8-1.925.025 0 .064.013.1.013l.089.025.292-.759z" class="cls-4" transform="translate(-282.827 -214.885)"/>
            <path id="Path_13380" d="M236.67 215.972c0 .329.19.57.621.735.329.139.38.177.38.3 0 .164-.152.241-.469.241a2.609 2.609 0 0 1-.735-.114l-.1.621h.038l.139.038c.05 0 .126.013.215.013a3.314 3.314 0 0 0 .456.025c.848 0 1.254-.279 1.254-.886 0-.367-.165-.582-.582-.747-.342-.127-.38-.165-.38-.291s.139-.215.405-.215a5.306 5.306 0 0 1 .582.038l.114-.608a4.857 4.857 0 0 0-.709-.05c-.911 0-1.228.4-1.228.9z" class="cls-4" transform="translate(-227.363 -214.516)"/>
            <path id="Path_13381" d="M157.785 217.789h-.659l.013-.279a1.1 1.1 0 0 1-.848.317.7.7 0 0 1-.734-.722c0-.646.518-1.026 1.418-1.026a3.124 3.124 0 0 1 .329.013.507.507 0 0 0 .025-.165c0-.177-.14-.241-.519-.241a3.4 3.4 0 0 0-.658.063l-.114.038-.076.012.114-.595a3.646 3.646 0 0 1 .963-.139c.7 0 1.051.266 1.051.772a2.832 2.832 0 0 1-.063.532l-.165.95-.025.164-.026.14-.013.088-.013.076zm-.585-1.189a1.05 1.05 0 0 0-.177-.013c-.456 0-.684.139-.684.406a.259.259 0 0 0 .278.279.621.621 0 0 0 .583-.671z" class="cls-4" transform="translate(-151.669 -214.51)"/>
            <path id="Path_13382" d="M200.15 217.529a3.065 3.065 0 0 1-.823.114c-.9 0-1.367-.418-1.367-1.2a1.458 1.458 0 0 1 1.406-1.583.959.959 0 0 1 1.077.962 2.724 2.724 0 0 1-.089.659h-1.609v.089c0 .3.228.468.7.468a2.139 2.139 0 0 0 .835-.164l-.127.658zm-.43-1.582v-.139c0-.215-.14-.342-.38-.342s-.431.177-.507.482z" class="cls-4" transform="translate(-191.387 -214.313)"/>
            <path id="Path_13383" d="M326.231 216.184a1.425 1.425 0 0 1-1.571 1.278 1.134 1.134 0 0 1-1.265-1.228 1.5 1.5 0 0 1 1.582-1.584 1.165 1.165 0 0 1 1.279 1.2 1.366 1.366 0 0 1-.025.33zm-.836-.342c0-.279-.114-.531-.443-.531-.406 0-.659.481-.659.911 0 .355.178.6.456.6a.785.785 0 0 0 .62-.646 1.4 1.4 0 0 0 .025-.33z" class="cls-4" transform="translate(-308.883 -214.12)"/>
        </g>
    </g>
</svg>
