<svg xmlns="http://www.w3.org/2000/svg" width="18" height="18" viewBox="0 0 18 18">
    <g>
        <g>
            <path d="M7.971.058A9 9 0 0 0 9.7 17.974a9.268 9.268 0 0 0 5.581-2.523l.132-.123a.375.375 0 0 0 .018-.53l-.512-.549a.375.375 0 0 0-.53-.018l-.274.256A7.5 7.5 0 1 1 9.222 1.5 7.632 7.632 0 0 1 16.5 9.2v.55a1.5 1.5 0 0 1-1.65 1.493 1.545 1.545 0 0 1-1.35-1.559V6.375A.375.375 0 0 0 13.125 6h-.75a.373.373 0 0 0-.338.218 4.122 4.122 0 1 0 .4 5.06 2.988 2.988 0 0 0 2.77 1.465A3.071 3.071 0 0 0 18 9.644V9A9.01 9.01 0 0 0 7.971.058zM9 11.625A2.625 2.625 0 1 1 11.625 9 2.628 2.628 0 0 1 9 11.625z"/>
        </g>
    </g>
</svg>
