<svg xmlns="http://www.w3.org/2000/svg" width="60" height="60" viewBox="0 0 60 60">
    <g>
        <g transform="translate(.293 -.001) translate(-.293 .001)">
            <circle cx="30" cy="30" r="30" fill="rgba(173,220,255,0.48)"/>
        </g>
        <g>
            <g>
                <path fill="#559aff" d="M148.472 112.286a7.3 7.3 0 1 0 7.3 7.3 7.307 7.307 0 0 0-7.3-7.3zm4.695 6.755l-1.591 1.551.376 2.19a1.043 1.043 0 0 1-1.513 1.1l-1.966-1.033-1.966 1.033a1.042 1.042 0 0 1-1.513-1.1l.376-2.19-1.591-1.551a1.042 1.042 0 0 1 .578-1.778l2.2-.32.983-1.991a1.084 1.084 0 0 1 1.869 0l.983 1.991 2.2.32a1.042 1.042 0 0 1 .578 1.778zm-4.4-.683l-.291-.589-.291.589a1.041 1.041 0 0 1-.785.57l-.65.095.47.459a1.042 1.042 0 0 1 .3.922l-.111.648.581-.305a1.042 1.042 0 0 1 .971 0l.581.305-.111-.648a1.042 1.042 0 0 1 .3-.922l.47-.459-.65-.095a1.04 1.04 0 0 1-.788-.57zm13.228 1.622a.846.846 0 0 1 0-.792l.438-.827a2.948 2.948 0 0 0-.851-3.73l-.754-.556a.85.85 0 0 1-.343-.714l.036-.935a2.947 2.947 0 0 0-2.386-2.992l-.918-.173a.844.844 0 0 1-.619-.494l-.374-.858a2.919 2.919 0 0 0-3.448-1.66l-.9.242a.842.842 0 0 1-.772-.176l-.709-.611a2.954 2.954 0 0 0-3.828 0l-.708.611a.848.848 0 0 1-.774.176l-.9-.242a2.918 2.918 0 0 0-3.448 1.66l-.374.858a.844.844 0 0 1-.618.494l-.919.173a2.947 2.947 0 0 0-2.386 2.992l.036.934a.849.849 0 0 1-.344.715l-.752.555a2.949 2.949 0 0 0-.852 3.731l.438.827a.846.846 0 0 1 0 .792l-.438.828a2.949 2.949 0 0 0 .852 3.731l.751.554a.847.847 0 0 1 .345.714l-.036.936a2.947 2.947 0 0 0 2.384 2.991l.922.175a.841.841 0 0 1 .617.493l.374.858a2.915 2.915 0 0 0 3.449 1.66l.9-.243a.852.852 0 0 1 .773.176l.709.611a2.953 2.953 0 0 0 3.828 0l.708-.611a.841.841 0 0 1 .773-.176l.9.243a2.92 2.92 0 0 0 3.448-1.66l.374-.858a.844.844 0 0 1 .62-.494l.917-.174a2.947 2.947 0 0 0 2.386-2.991l-.036-.935a.848.848 0 0 1 .343-.714l.753-.555a2.949 2.949 0 0 0 .852-3.731zm-13.519 8.987a9.383 9.383 0 1 1 9.383-9.383 9.393 9.393 0 0 1-9.387 9.383zm-5.071 6.141a5.105 5.105 0 0 1-4.7-3.273l-.474-.109-2.253 4.03a1.043 1.043 0 0 0 .022 1.064 1.059 1.059 0 0 0 .949.485l3.058-.2 1.357 2.746a1.044 1.044 0 0 0 .908.58h.027a1.043 1.043 0 0 0 .91-.533l2.507-4.485a4.693 4.693 0 0 1-.734-.556 5.3 5.3 0 0 1-1.582.251zm15.287-3.374l-.445.1a5.111 5.111 0 0 1-4.7 3.272 5.981 5.981 0 0 1-1.581-.246 4.76 4.76 0 0 1-.757.573l2.5 4.468a1.043 1.043 0 0 0 .91.534h.027a1.044 1.044 0 0 0 .908-.58l1.358-2.746 3.057.2a1.043 1.043 0 0 0 .977-1.55z" transform="translate(.293 -.001) translate(15.442 12.554) translate(-134.178 -105)"/>
            </g>
        </g>
    </g>
</svg>
