<svg xmlns="http://www.w3.org/2000/svg" width="36" height="36" viewBox="0 0 36 36">
    <g transform="translate(-442 -392)">
        <circle cx="18" cy="18" r="18" fill="#f0592a" transform="translate(442 392)"/>
        <path fill="#fff" d="M8 18.407a1.652 1.652 0 0 1-1.167-.484L2.693 13.8a4.045 4.045 0 0 0-.351-.322 7.842 7.842 0 0 1 .427-11.566 8.036 8.036 0 0 1 10.463.049A7.781 7.781 0 0 1 16 7.644a7.873 7.873 0 0 1-2.337 5.86 2.224 2.224 0 0 0-.174.16 2.182 2.182 0 0 1-.177.163l-4.141 4.1a1.652 1.652 0 0 1-1.171.48zM7.988 5.039a2.731 2.731 0 1 0 2.76 2.732 2.749 2.749 0 0 0-2.76-2.732z" transform="translate(452 401)"/>
    </g>
</svg>
