<svg xmlns="http://www.w3.org/2000/svg" width="24" height="24" viewBox="0 0 24 24">
    <g>
        <path fill="none" d="M0 0H24V24H0z" transform="translate(-213 -577) translate(213 577)"/>
        <g>
            <path d="M22.25 5.009H1.75A1.758 1.758 0 0 0 0 6.759v3.5a1.758 1.758 0 0 0 1.75 1.75h20.5a1.758 1.758 0 0 0 1.75-1.75v-3.5a1.758 1.758 0 0 0-1.75-1.75z" transform="translate(-213 -577) translate(213 576.841)"/>
            <path d="M2.75 13.509H2v7.75a2.748 2.748 0 0 0 2.75 2.75h6.5v-10.5h-8.5z" transform="translate(-213 -577) translate(213 576.841)"/>
            <path d="M20.5 13.509h-7.75v10.5h6.5a2.748 2.748 0 0 0 2.75-2.75v-7.75h-1.5z" transform="translate(-213 -577) translate(213 576.841)"/>
            <path d="M16.724.91a2.713 2.713 0 0 0-3.747 0A5.615 5.615 0 0 0 12 2.839 5.615 5.615 0 0 0 11.023.91a2.712 2.712 0 0 0-3.747 0 2.65 2.65 0 0 0 0 3.747c.832.832 3.7 1.518 4.562 1.708a.689.689 0 0 0 .162.019.745.745 0 0 0 .162-.018c.859-.19 3.729-.877 4.562-1.708a2.651 2.651 0 0 0 0-3.748zM8.337 3.6a1.15 1.15 0 0 1 1.625-1.63 9.068 9.068 0 0 1 1.009 2.635A9.078 9.078 0 0 1 8.337 3.6zm7.326 0a9.105 9.105 0 0 1-2.635 1.008 9.068 9.068 0 0 1 1.009-2.638 1.15 1.15 0 0 1 1.626 1.63z" transform="translate(-213 -577) translate(213 576.841)"/>
        </g>
    </g>
</svg>
