<svg xmlns="http://www.w3.org/2000/svg" width="36" height="36" viewBox="0 0 36 36">
    <defs>
        <style>
            .cls-3{fill:#f0592a}
        </style>
    </defs>
    <g id="HarvestTrolley-icon" transform="translate(15352 14840)">
        <circle id="Ellipse_3330" cx="18" cy="18" r="18" fill="#fde6df" transform="translate(-15352 -14840)"/>
        <g id="HarvestTrolley-icon-2" transform="translate(-15343 -14831)">
            <path id="Rectangle_10879" fill="rgba(61,213,152,0)" d="M0 0H18V18H0z"/>
            <g id="school-bus" transform="translate(0 3)">
                <g id="Group_36640">
                    <g id="Group_36639">
                        <path id="Path_10682" d="M219.353 167.039a.206.206 0 0 0-.206.206v1.518a.206.206 0 0 0 .206.206h2.361a.206.206 0 0 0 .206-.206v-1.518a.206.206 0 0 0-.206-.206z" class="cls-3" transform="translate(-211.443 -164.162)"/>
                        <path id="Path_10683" d="M.206 87.451h14.38a.206.206 0 0 0 .206-.206v-.615a1.44 1.44 0 0 0-1.44-1.44H1.44A1.44 1.44 0 0 0 0 86.631v.615a.206.206 0 0 0 .206.205z" class="cls-3" transform="translate(0 -85.191)"/>
                        <path id="Path_10684" d="M319.05 167.039h-3.287a.206.206 0 0 0-.206.206v1.518a.206.206 0 0 0 .206.206h3.287a.206.206 0 0 0 .206-.206v-1.518a.206.206 0 0 0-.206-.206z" class="cls-3" transform="translate(-304.464 -164.162)"/>
                        <path id="Path_10685" d="M122.941 167.039a.206.206 0 0 0-.206.206v1.518a.206.206 0 0 0 .206.206h2.359a.206.206 0 0 0 .206-.206v-1.518a.206.206 0 0 0-.206-.206z" class="cls-3" transform="translate(-118.42 -164.162)"/>
                        <path id="Path_10686" d="M.212 167.039a.206.206 0 0 0-.206.206v1.518a.206.206 0 0 0 .206.206H3.5a.206.206 0 0 0 .206-.206v-1.518a.206.206 0 0 0-.206-.206z" class="cls-3" transform="translate(-.006 -164.162)"/>
                        <path id="Path_10687" d="M56.005 306.023a2.123 2.123 0 1 0 2.123 2.123 2.126 2.126 0 0 0-2.123-2.123z" class="cls-3" transform="translate(-51.988 -298.259)"/>
                        <path id="Path_10688" d="M335.016 306.023a2.123 2.123 0 1 0 2.123 2.123 2.126 2.126 0 0 0-2.123-2.123z" class="cls-3" transform="translate(-321.189 -298.259)"/>
                        <path id="Path_10689" d="M16.917 239.815l-2.061-.339H.212a.206.206 0 0 0-.206.206v3.434a1.442 1.442 0 0 0 1.033 1.384.206.206 0 0 0 .265-.222 2.74 2.74 0 1 1 5.433.044.206.206 0 0 0 .2.237h3.976a.206.206 0 0 0 .2-.237 2.74 2.74 0 1 1 5.454-.38 2.706 2.706 0 0 1-.024.361.207.207 0 0 0 .239.233A1.426 1.426 0 0 0 18 243.119v-1.909a1.426 1.426 0 0 0-1.083-1.395z" class="cls-3" transform="translate(-.006 -234.052)"/>
                    </g>
                </g>
            </g>
        </g>
    </g>
</svg>
