<svg xmlns="http://www.w3.org/2000/svg" width="24" height="24" viewBox="0 0 24 24">
    <g>
        <path fill="none" d="M0 0H24V24H0z" transform="translate(-246 -536) translate(246 536)"/>
        <path d="M12 0a12 12 0 1 0 12 12A12.013 12.013 0 0 0 12 0zm0 19a1 1 0 1 1 1-1 1 1 0 0 1-1 1zm1.583-6.358a1 1 0 0 0-.583.909V14a1 1 0 0 1-2 0v-.449a3.013 3.013 0 0 1 1.745-2.726A3.268 3.268 0 0 0 14.5 8.5a2.5 2.5 0 1 0-5 0 1 1 0 1 1-2 0 4.5 4.5 0 1 1 9 0 5.211 5.211 0 0 1-2.917 4.142zm0 0" transform="translate(-246 -536) translate(246 536)"/>
    </g>
</svg>
