<svg xmlns="http://www.w3.org/2000/svg" width="60" height="60" viewBox="0 0 60 60">
    <g>
        <g transform="translate(-.298 -.001)">
            <circle cx="30" cy="30" r="30" fill="#c3ffe8" transform="translate(.298 .001)"/>
        </g>
        <g>
            <g>
                <path fill="#00b59c" d="M153.7 117.552a5.23 5.23 0 1 0 5.23 5.23 5.236 5.236 0 0 0-5.23-5.23zm2.832 4.924l-3.138 3.138a1.046 1.046 0 0 1-1.479 0l-1.046-1.046a1.046 1.046 0 1 1 1.479-1.479l.306.306 2.4-2.4a1.046 1.046 0 0 1 1.479 1.479zm9.721-11.784c-5.79 0-11.79-5.367-11.851-5.421a1.048 1.048 0 0 0-1.4 0c-.06.054-6.061 5.421-11.851 5.421a1.045 1.045 0 0 0-1.046 1.046V124.2c0 9.859 7.068 13.821 13.225 16.172a1.051 1.051 0 0 0 .746 0c6.158-2.352 13.226-6.314 13.226-16.172v-12.462a1.046 1.046 0 0 0-1.045-1.046zM153.7 130.1a7.322 7.322 0 1 1 7.322-7.322 7.331 7.331 0 0 1-7.322 7.322z" transform="translate(-.298 -.001) translate(16.479 12.554) translate(-140.106 -105.001)"/>
            </g>
        </g>
    </g>
</svg>
