<svg xmlns="http://www.w3.org/2000/svg" width="24" height="24" viewBox="0 0 24 24">
    <g>
        <path fill="none" d="M0 0H24V24H0z" transform="translate(-142 -622) translate(142 622)"/>
        <g>
            <g>
                <g>
                    <path d="M23.842 9.677a1.82 1.82 0 0 0-.5-.667l-3-2.505V5.181a1.829 1.829 0 0 0-1.826-1.828h-1.938L13.528.8a2.331 2.331 0 0 0-3.048 0L7.422 3.354H5.478a1.829 1.829 0 0 0-1.826 1.827V6.5l-3 2.505a1.82 1.82 0 0 0-.5.666 2.184 2.184 0 0 0-.152.742v11.47a2.352 2.352 0 0 0 2.348 2.35h19.3A2.352 2.352 0 0 0 24 21.883v-11.47a2.206 2.206 0 0 0-.158-.736zM3.652 11.3L2 9.924l1.652-1.377zm7.839-9.309A.78.78 0 0 1 12.517 2l1.619 1.354H9.864zm7.292 10.618l-6.274 5.245a.78.78 0 0 1-1.026-.007l-6.266-5.236v-7.43a.261.261 0 0 1 .261-.261h13.044a.261.261 0 0 1 .261.261v7.43zm1.565-1.309V8.546L22 9.924z" transform="translate(-142 -622) translate(142 622) translate(0 -.233)"/>
                </g>
            </g>
            <g>
                <g>
                    <path d="M185.391 137.175a3.652 3.652 0 1 0-4.155 3.613l-.352.7a.261.261 0 0 0 .233.378h1.243a.261.261 0 0 0 .233-.378l-.352-.7a3.655 3.655 0 0 0 3.15-3.613z" transform="translate(-142 -622) translate(142 622) translate(8.348 6.257) translate(-178.087 -133.523)"/>
                </g>
            </g>
        </g>
    </g>
</svg>
