<?xml version="1.0" encoding="utf-8"?>
<svg xmlns="http://www.w3.org/2000/svg" xmlns:xlink="http://www.w3.org/1999/xlink" style="width: 300px; height: 300px; margin: auto; display: block; shape-rendering: auto;" width="200px" height="200px" viewBox="0 0 100 100" preserveAspectRatio="xMidYMid">
<g transform="translate(50 50)">
<g>
<animateTransform attributeName="transform" type="rotate" values="0;45" keyTimes="0;1" dur="0.2s" repeatCount="indefinite"></animateTransform><path d="M29.287369291214944 -6.5 L33.287369291214944 -6.5 L33.287369291214944 6.5 L29.287369291214944 6.5 A30 30 0 0 1 25.305491506645296 16.113103351220175 L25.305491506645296 16.113103351220175 L28.133918631391488 18.941530475966367 L18.941530475966367 28.133918631391488 L16.113103351220175 25.305491506645296 A30 30 0 0 1 6.500000000000003 29.28736929121494 L6.500000000000003 29.28736929121494 L6.500000000000003 33.287369291214944 L-6.499999999999998 33.287369291214944 L-6.499999999999998 29.287369291214944 A30 30 0 0 1 -16.11310335122018 25.305491506645293 L-16.11310335122018 25.305491506645293 L-18.94153047596637 28.133918631391484 L-28.133918631391484 18.941530475966374 L-25.305491506645293 16.113103351220182 A30 30 0 0 1 -29.287369291214944 6.499999999999997 L-29.287369291214944 6.499999999999997 L-33.287369291214944 6.499999999999998 L-33.287369291214944 -6.499999999999989 L-29.287369291214944 -6.49999999999999 A30 30 0 0 1 -25.305491506645296 -16.113103351220175 L-25.305491506645296 -16.113103351220175 L-28.133918631391488 -18.941530475966363 L-18.941530475966378 -28.133918631391477 L-16.113103351220186 -25.30549150664529 A30 30 0 0 1 -6.499999999999999 -29.287369291214944 L-6.499999999999999 -29.287369291214944 L-6.5 -33.287369291214944 L6.499999999999988 -33.287369291214944 L6.4999999999999885 -29.287369291214944 A30 30 0 0 1 16.113103351220175 -25.305491506645296 L16.113103351220175 -25.305491506645296 L18.941530475966363 -28.133918631391488 L28.133918631391477 -18.941530475966378 L25.30549150664529 -16.113103351220186 A30 30 0 0 1 29.287369291214944 -6.500000000000001 M0 -16A16 16 0 1 0 0 16 A16 16 0 1 0 0 -16" fill="#ee6123"></path></g></g>
<!-- [ldio] generated by https://loading.io/ --></svg>