<svg xmlns="http://www.w3.org/2000/svg" width="24" height="24" viewBox="0 0 24 24">
    <g>
        <path fill="none" d="M0 0H24V24H0z" transform="translate(-147 -577) translate(147 577)"/>
        <g>
            <g>
                <g>
                    <path d="M22.367 19.637h-3.819a4.364 4.364 0 0 1 0-8.727h3.818a.545.545 0 0 0 .545-.545V8.728A2.177 2.177 0 0 0 20.9 6.563l-3.129-5.471a2.159 2.159 0 0 0-2.962-.8L4.071 6.546H2.185A2.184 2.184 0 0 0 0 8.728v13.091A2.184 2.184 0 0 0 2.185 24H20.73a2.184 2.184 0 0 0 2.182-2.182v-1.636a.545.545 0 0 0-.545-.545zM18.448 4.47l1.189 2.076h-4.755zM6.239 6.546l9.12-5.309a1.055 1.055 0 0 1 .81-.109 1.07 1.07 0 0 1 .655.507L8.392 6.546z" transform="translate(-147 -577) translate(147 577) translate(-.003)"/>
                    <path d="M305.761 234.674h-3.818a3.273 3.273 0 0 0 0 6.545h3.818a1.638 1.638 0 0 0 1.636-1.636v-3.273a1.638 1.638 0 0 0-1.636-1.636zm-3.818 4.364a1.091 1.091 0 1 1 1.091-1.091 1.092 1.092 0 0 1-1.091 1.091z" transform="translate(-147 -577) translate(147 577) translate(-283.397 -222.674)"/>
                </g>
            </g>
        </g>
    </g>
</svg>
