<svg xmlns="http://www.w3.org/2000/svg" width="36" height="36" viewBox="0 0 36 36">
    <defs>
        <clipPath id="clip-path">
            <circle id="Ellipse_3559" cx="18" cy="18" r="18" class="cls-1" transform="translate(-15131 -14778)"/>
        </clipPath>
        <style>
            .cls-1{fill:#f0592a}.cls-4,.cls-5{fill:#fff}.cls-5{stroke:#fff}.cls-6{stroke:none}.cls-7{fill:none}
        </style>
    </defs>
    <g id="request-now-icon" clip-path="url(#clip-path)" transform="translate(15131 14778)">
        <circle id="Ellipse_3558" cx="18" cy="18" r="18" class="cls-1" transform="translate(-15131 -14778)"/>
        <g id="Group_37541" transform="translate(-15121 -14768)">
            <path id="Rectangle_11557" fill="rgba(61,213,152,0)" d="M0 0H18V18H0z"/>
            <g id="school-bus" transform="translate(0 3)">
                <g id="Group_37540">
                    <g id="Group_37539">
                        <path id="Path_14013" d="M219.353 167.039a.206.206 0 0 0-.206.206v1.518a.206.206 0 0 0 .206.206h2.361a.206.206 0 0 0 .206-.206v-1.518a.206.206 0 0 0-.206-.206z" class="cls-4" transform="translate(-211.443 -164.162)"/>
                        <path id="Path_14014" d="M.206 87.451h14.38a.206.206 0 0 0 .206-.206v-.615a1.44 1.44 0 0 0-1.44-1.44H1.44A1.44 1.44 0 0 0 0 86.631v.615a.206.206 0 0 0 .206.205z" class="cls-4" transform="translate(0 -85.191)"/>
                        <path id="Path_14015" d="M319.05 167.039h-3.287a.206.206 0 0 0-.206.206v1.518a.206.206 0 0 0 .206.206h3.287a.206.206 0 0 0 .206-.206v-1.518a.206.206 0 0 0-.206-.206z" class="cls-4" transform="translate(-304.464 -164.162)"/>
                        <path id="Path_14016" d="M122.941 167.039a.206.206 0 0 0-.206.206v1.518a.206.206 0 0 0 .206.206h2.359a.206.206 0 0 0 .206-.206v-1.518a.206.206 0 0 0-.206-.206z" class="cls-4" transform="translate(-118.42 -164.162)"/>
                        <path id="Path_14017" d="M.212 167.039a.206.206 0 0 0-.206.206v1.518a.206.206 0 0 0 .206.206H3.5a.206.206 0 0 0 .206-.206v-1.518a.206.206 0 0 0-.206-.206z" class="cls-4" transform="translate(-.006 -164.162)"/>
                        <path id="Path_14018" d="M56.005 306.023a2.123 2.123 0 1 0 2.123 2.123 2.126 2.126 0 0 0-2.123-2.123z" class="cls-4" transform="translate(-51.988 -298.259)"/>
                        <path id="Path_14019" d="M335.016 306.023a2.123 2.123 0 1 0 2.123 2.123 2.126 2.126 0 0 0-2.123-2.123z" class="cls-4" transform="translate(-321.189 -298.259)"/>
                        <path id="Path_14020" d="M16.917 239.815l-2.061-.339H.212a.206.206 0 0 0-.206.206v3.434a1.442 1.442 0 0 0 1.033 1.384.206.206 0 0 0 .265-.222 2.74 2.74 0 1 1 5.433.044.206.206 0 0 0 .2.237h3.976a.206.206 0 0 0 .2-.237 2.74 2.74 0 1 1 5.454-.38 2.706 2.706 0 0 1-.024.361.207.207 0 0 0 .239.233A1.426 1.426 0 0 0 18 243.119v-1.909a1.426 1.426 0 0 0-1.083-1.395z" class="cls-4" transform="translate(-.006 -234.052)"/>
                    </g>
                </g>
            </g>
        </g>
        <g id="Group_37542" transform="rotate(-11 -14796.165 -14795.693)">
            <g id="Rectangle_11558" class="cls-5" transform="translate(-15134 -14827)">
                <rect width="10" height="2" class="cls-6" rx="1"/>
                <rect width="9" height="1" x=".5" y=".5" class="cls-7" rx=".5"/>
            </g>
            <g id="Rectangle_11559" class="cls-5" transform="translate(-15130 -14823.5)">
                <rect width="6" height="2" class="cls-6" rx="1"/>
                <rect width="5" height="1" x=".5" y=".5" class="cls-7" rx=".5"/>
            </g>
            <g id="Rectangle_11560" class="cls-5" transform="translate(-15127 -14820)">
                <rect width="3" height="2" class="cls-6" rx="1"/>
                <rect width="2" height="1" x=".5" y=".5" class="cls-7" rx=".5"/>
            </g>
        </g>
    </g>
</svg>
