<svg xmlns="http://www.w3.org/2000/svg" width="60" height="60" viewBox="0 0 60 60">
    <g>
        <g transform="translate(-.06 -.001)">
            <circle cx="30" cy="30" r="30" fill="rgba(255,239,175,0.52)" transform="translate(.06 .001)"/>
        </g>
        <g>
            <g>
                <path fill="#fda800" d="M123.184 129.128l2.66 1.33v-7.693h-6.253v7.693l2.66-1.33a1.043 1.043 0 0 1 .933 0zm16.209-6.363h-11.464v9.38a1.043 1.043 0 0 1-1.508.932l-3.7-1.851-3.7 1.851a1.043 1.043 0 0 1-1.508-.932v-9.38h-11.471a1.042 1.042 0 0 0-1.042 1.042v29.182a1.042 1.042 0 0 0 1.042 1.042h33.351a1.042 1.042 0 0 0 1.042-1.042v-29.182a1.041 1.041 0 0 0-1.042-1.042zm-12.507 25.013h-8.338a5.211 5.211 0 1 1 0-10.422h1.652l-.305-.305a1.042 1.042 0 0 1 1.474-1.474l2.083 2.083a1.046 1.046 0 0 1 0 1.476l-2.083 2.083a1.042 1.042 0 1 1-1.474-1.474l.305-.305h-1.653a3.127 3.127 0 1 0 0 6.253h8.338a3.127 3.127 0 1 0 0-6.253 1.042 1.042 0 1 1 0-2.084 5.211 5.211 0 1 1 0 10.422z" transform="translate(-.06 -.001) translate(12.619 14.638) translate(-105 -122.765)"/>
            </g>
        </g>
    </g>
</svg>
