<svg xmlns="http://www.w3.org/2000/svg" width="18" height="18" viewBox="0 0 18 18">
    <g>
        <g>
            <path d="M17.731.495V.49c0-.005-.009 0-.013-.008A.693.693 0 0 0 17.58.4c-.015-.007-.026-.02-.042-.027h-.005c-.016-.007-.03-.019-.046-.025a.739.739 0 0 0-.196-.038c-.02 0-.04-.011-.06-.011a.746.746 0 0 0-.26.044l-16.479 6a.75.75 0 0 0-.178 1.315L5.3 11.221l.7 4.932a.749.749 0 0 0 1.34.347l1.768-2.358 4.636 3.98a.75.75 0 0 0 .488.181.762.762 0 0 0 .25-.043.752.752 0 0 0 .486-.572L17.987 1.2a.748.748 0 0 0-.256-.705zm-9.3 12.04l-.054.078-1.15 1.535-.435-3.048 6.5-5.64z" transform="translate(.001 -.299) translate(-.001 .299) translate(.001 -.299)"/>
        </g>
    </g>
</svg>
