<svg xmlns="http://www.w3.org/2000/svg" width="60" height="60" viewBox="0 0 60 60">
    <g>
        <g transform="translate(.464 -.001)">
            <circle cx="30" cy="30" r="30" fill="rgba(255,200,209,0.47)" transform="translate(-.464 .001)"/>
        </g>
        <g>
            <g>
                <path fill="#fd3a84" d="M160.951 132.6a63.366 63.366 0 0 1-4.765 4.936 3.127 3.127 0 0 1-4.212 0 63.4 63.4 0 0 1-4.769-4.94c-3.229.507-6.676 1.545-6.676 3.669 0 3.291 8.517 4.169 13.549 4.169s13.549-.878 13.549-4.169c0-2.124-3.447-3.162-6.676-3.669zm-11.68-15.091l1.389 4.169h6.84l1.389-4.169zm4.1 18.488a1.043 1.043 0 0 0 1.4 0c.481-.44 11.8-10.85 11.8-18.488a12.506 12.506 0 1 0-25.013 0c0 7.638 11.323 18.048 11.8 18.488zm-4.455-12.947l-2.084-6.253a1.041 1.041 0 0 1 .988-1.372h1.425l1.811-3.622a1.042 1.042 0 0 1 1.865.932l-1.345 2.69h4.994l-1.345-2.69a1.042 1.042 0 1 1 1.865-.932l1.811 3.622h1.425a1.041 1.041 0 0 1 .988 1.372l-2.084 6.253a1.041 1.041 0 0 1-.988.712h-8.338a1.041 1.041 0 0 1-.983-.715z" transform="translate(.464 -.001) translate(16.269 12.554) translate(-140.529 -105)"/>
            </g>
        </g>
    </g>
</svg>
