<svg xmlns="http://www.w3.org/2000/svg" width="18" height="18" viewBox="0 0 18 18">
    <defs>
        <style>
            .cls-2{fill:#f0592a}
        </style>
    </defs>
    <g id="shopping-cart-icon" transform="translate(-1014 -13758)">
        <path id="Rectangle_10866" fill="rgba(240,89,42,0)" d="M0 0H18V18H0z" transform="translate(1014 13758)"/>
        <g id="cart" transform="translate(941.65 13659.2)">
            <path id="Path_10672" d="M88.749 101.834h-9.607v-2.49a.544.544 0 0 0-.542-.544h-4.956a.544.544 0 0 0-.544.544v1.68a.81.81 0 0 0 .81.81h1.354l.159 1.467.681 7.455a.811.811 0 0 0 .805.736h11.1a.807.807 0 0 0 .805-.736l.742-8.112a.808.808 0 0 0-.807-.81z" class="cls-2"/>
            <path id="Path_10673" d="M614.7 751.122a1.922 1.922 0 1 0 1.922-1.922 1.922 1.922 0 0 0-1.922 1.922z" class="cls-2" transform="translate(-529.812 -636.244)"/>
            <path id="Path_10674" d="M245.4 751.122a1.922 1.922 0 1 0 1.922-1.922 1.922 1.922 0 0 0-1.922 1.922z" class="cls-2" transform="translate(-168.55 -636.244)"/>
        </g>
    </g>
</svg>
