<svg xmlns="http://www.w3.org/2000/svg" width="15.596" height="21.079" viewBox="0 0 15.596 21.079">
    <defs>
        <style>
            .cls-1{fill:#85848c}
        </style>
    </defs>
    <g id="trash_1_">
        <path id="Path_10702" d="M20.926 182.263a1.83 1.83 0 0 0 1.828 1.828h10.217a1.83 1.83 0 0 0 1.828-1.828v-12.251H20.926zm9.479-9.476a.618.618 0 1 1 1.235 0v7.294a.618.618 0 0 1-1.235 0zm-3.16 0a.618.618 0 1 1 1.235 0v7.294a.618.618 0 0 1-1.235 0zm-3.16 0a.618.618 0 1 1 1.235 0v7.294a.618.618 0 0 1-1.235 0zm0 0" class="cls-1" transform="translate(-20.064 -163.013)"/>
        <path id="Path_10703" d="M15.6 5.167a2.91 2.91 0 0 0-2.907-2.907h-1.939v-.431A1.83 1.83 0 0 0 8.926 0H6.67a1.831 1.831 0 0 0-1.828 1.829v.432H2.906A2.91 2.91 0 0 0 0 5.167v.6h15.6zM9.519 2.261H6.077v-.432a.594.594 0 0 1 .593-.593h2.256a.594.594 0 0 1 .593.593zm0 0" class="cls-1"/>
    </g>
</svg>
